<svg xmlns="http://www.w3.org/2000/svg" width="14.712" height="18.486" viewBox="0 0 14.712 18.486">
  <g id="Icon_feather-bookmark" data-name="Icon feather-bookmark" transform="translate(-837.644 -250.257)">
    <path id="Path_6104" data-name="Path 6104" d="M851.606,268.743a.75.75,0,0,1-.435-.139L845,264.2l-6.171,4.407a.75.75,0,0,1-1.185-.611v-15.1a2.639,2.639,0,0,1,2.637-2.637h9.437a2.639,2.639,0,0,1,2.637,2.637v15.1a.75.75,0,0,1-.407.667A.739.739,0,0,1,851.606,268.743Zm-11.325-16.986a1.138,1.138,0,0,0-1.137,1.137v13.642l5.42-3.871a.751.751,0,0,1,.872,0l5.42,3.871V252.894a1.138,1.138,0,0,0-1.137-1.137Z" fill="#697e93"/>
  </g>
</svg>
